<svg xmlns="http://www.w3.org/2000/svg" xmlns:xlink="http://www.w3.org/1999/xlink" viewBox="0 0 500 167"><defs><style>.cls-1,.cls-4{fill:none;}.cls-2{fill:#4273c1;}.cls-3{clip-path:url(#clip-path);}.cls-4{stroke:#4273c1;stroke-miterlimit:10;stroke-width:5.9px;}.cls-5{clip-path:url(#clip-path-2);}.cls-6{clip-path:url(#clip-path-3);}</style><clipPath id="clip-path"><rect class="cls-1" x="42.98" y="15.25" width="141.33" height="141"/></clipPath><clipPath id="clip-path-2"><rect class="cls-1" x="76.32" y="31.79" width="108" height="124.45"/></clipPath><clipPath id="clip-path-3"><rect class="cls-1" x="129.65" y="15.25" width="17.33" height="9.88"/></clipPath></defs><g id="Layer_2" data-name="Layer 2"><g id="Layer_1-2" data-name="Layer 1"><path class="cls-2" d="M141.31,86.79,173.1,59.35,145.48,91Z"/><g class="cls-3"><path class="cls-4" d="M126.58,105.62l8-8"/></g><path class="cls-2" d="M139.7,97a3.77,3.77,0,1,1,2.93-4.47A3.78,3.78,0,0,1,139.7,97Zm-2.61-12.41a8.91,8.91,0,1,0,10.59,6.89,8.9,8.9,0,0,0-10.59-6.89"/><g class="cls-5"><path class="cls-2" d="M133,33.2A61.5,61.5,0,1,0,144.5,155.66a62.2,62.2,0,0,0,12.08-2.34,11.49,11.49,0,0,1-1.4-3.18,49.56,49.56,0,0,1-12.17,1.1C113.47,150,88.1,128.75,85.33,99.42a53.49,53.49,0,0,1,48.38-58.18c16.89-1.58,32.55,3.26,43.87,15.88l6.75-4.33C171.31,38.26,152.4,31.38,133,33.2"/></g><path class="cls-2" d="M126.33,38.29l-57.92-2.4,66.22-2.75Z"/><path class="cls-2" d="M83.07,97.59l-50-2.4,50-2.41Z"/><path class="cls-2" d="M131.77,155.75,16.31,152.11l107.41-3.38Z"/><path class="cls-2" d="M90,126.75,41,125l49-1.77Z"/><path class="cls-2" d="M88.79,67.24,57.44,65.47,88.79,63.7Z"/><path class="cls-2" d="M83.73,82.31,52.37,80.55l31.36-1.77Z"/><path class="cls-2" d="M84.28,111.89l-48.45-1.77,48.45-1.77Z"/><path class="cls-2" d="M100.73,141.27l-69.1-1.77,69.1-1.77Z"/><path class="cls-2" d="M100.73,52.33,69.38,50.55l31.35-1.77Z"/><g class="cls-6"><path class="cls-2" d="M145.48,23.84H131.94a1.17,1.17,0,0,1-1.18-1.17V16.46a1.17,1.17,0,0,1,1.18-1.17h13.54a1.17,1.17,0,0,1,1.18,1.17v6.21a1.17,1.17,0,0,1-1.18,1.17"/></g><path class="cls-2" d="M142.68,31.68h-7.94V25h7.94v6.68"/><path class="cls-2" d="M117.92,56.4,114.78,51,112.92,52l3.14,5.43c.61-.37,1.23-.73,1.86-1.07"/><path class="cls-2" d="M138.72,51.13l1.07,0V44.87h-2.15v6.28l1.07,0"/><path class="cls-2" d="M101.62,71.85l-5.45-3.13-1.08,1.85,5.46,3.13c.33-.62.69-1.24,1.07-1.85"/><path class="cls-2" d="M161.38,57.48,164.53,52,162.67,51l-3.15,5.42c.63.35,1.25.7,1.86,1.08"/><path class="cls-2" d="M95.25,94.43c0-.36,0-.71,0-1.07H89v2.13h6.32c0-.35,0-.7,0-1.06"/><path class="cls-2" d="M100.54,115.15l-5.45,3.13,1.07,1.85,5.45-3.13c-.37-.61-.73-1.23-1.07-1.85"/><path class="cls-2" d="M138.72,137.73l-1.09,0V144h2.15v-6.28l-1.06,0"/><path class="cls-2" d="M116.05,131.38l-3.14,5.43,1.85,1.07,3.15-5.42q-.94-.51-1.86-1.08"/><path class="cls-2" d="M192.85,68.76l10.87-47.1h14.36l-2.69,28.73L226,21.66h14.48L229.6,68.76H221l7.84-33.93L215.56,68.76h-8.44l2.08-33.93-7.85,33.93Z"/><path class="cls-2" d="M241.6,69.2c-3.11,0-5-1-5.66-3.08s-.59-5,.29-8.88a20.93,20.93,0,0,1,2.9-7.23,11.19,11.19,0,0,1,4.27-3.68,52.54,52.54,0,0,1,7.31-2.63l2.85-.87v-.11l.92-4a3.55,3.55,0,0,0,0-2.43,1.41,1.41,0,0,0-1.31-.86,2.25,2.25,0,0,0-1.53.71,3.86,3.86,0,0,0-1,1.92L250,40.47h-9.31l.27-1.31c.92-4,2.48-6.78,4.71-8.46s5.44-2.52,9.6-2.52q5,0,7.5,2.61t1.44,7.37l-7,30.6h-9.54l1.1-4.77a11.43,11.43,0,0,1-3.21,3.84A6.6,6.6,0,0,1,241.6,69.2Zm5.48-7.46a2.08,2.08,0,0,0,1.77-.89,5.68,5.68,0,0,0,1-2.23l2.57-11.19a10.23,10.23,0,0,0-3.63,2.11A6.6,6.6,0,0,0,247,53l-1.21,5.14C245.21,60.56,245.65,61.74,247.08,61.74Z"/><path class="cls-2" d="M269.63,25.93l1.52-6.69h9.6l-1.54,6.69Zm-9.88,42.83L269,28.62h9.59l-9.27,40.14Z"/><path class="cls-2" d="M283.43,28.62H293l-1.2,5.1a11.41,11.41,0,0,1,3-4,6.56,6.56,0,0,1,4.31-1.54q4.06,0,5.41,2.5t.34,7.11l-7.13,31h-9.43l6.91-30a4.21,4.21,0,0,0,0-2.22,1.29,1.29,0,0,0-1.37-.94A2.44,2.44,0,0,0,291.56,37a13.45,13.45,0,0,0-1.32,3.59l-6.48,28.22h-9.6Z"/><path class="cls-2" d="M309,69.2c-2.52,0-4.13-.52-4.84-1.58s-.8-2.77-.25-5.11l5.82-25.06H307l1.64-7.29h2.69l2-8.5h9.33l-2,8.5h2.75l-1.64,7.29H319L313.81,60a5.13,5.13,0,0,0-.23,1.55c0,.32.3.47.77.47s.74,0,1.09,0l.68-.06-1.54,6.58c-.58.14-1.42.3-2.5.46A20,20,0,0,1,309,69.2Z"/><path class="cls-2" d="M329.43,69.2q-6.19,0-8.11-3.39T321,55.66l3.73-16.12a14,14,0,0,1,5.1-8.44,15.35,15.35,0,0,1,9.55-2.92q11.55,0,9,11.36l-.71,2.91c-.66,2.92-1.24,5.29-1.75,7.13H332l-1.75,7.79a9.17,9.17,0,0,0-.33,3.27c.11.78.64,1.17,1.6,1.17a2.22,2.22,0,0,0,1.69-.65,4.23,4.23,0,0,0,.89-1.52,17.6,17.6,0,0,0,.65-2.5l.94-3.9h9.54l-.56,2.32q-1.59,7-5.07,10.33T329.43,69.2Zm8.12-24.39,1.21-5.17q1-4.34-1.16-4.33-2.4,0-3.4,4.33L333,44.81Z"/><path class="cls-2" d="M354.27,28.62h9.6l-1.21,5.1a11.53,11.53,0,0,1,3-4A6.61,6.61,0,0,1,370,28.18c2.7,0,4.51.83,5.41,2.5s1,4,.34,7.11l-7.13,31h-9.44l6.92-30a4.21,4.21,0,0,0,0-2.22,1.29,1.29,0,0,0-1.38-.94A2.44,2.44,0,0,0,362.39,37a13.83,13.83,0,0,0-1.31,3.59L354.6,68.76H345Z"/><path class="cls-2" d="M379.61,69.2c-3.12,0-5-1-5.67-3.08s-.58-5,.29-8.88a20.93,20.93,0,0,1,2.9-7.23,11.26,11.26,0,0,1,4.27-3.68,53,53,0,0,1,7.31-2.63l2.86-.87v-.11l.91-4a3.55,3.55,0,0,0,0-2.43,1.41,1.41,0,0,0-1.31-.86,2.23,2.23,0,0,0-1.52.71,3.78,3.78,0,0,0-1,1.92L388,40.47h-9.31l.27-1.31q1.38-5.94,4.71-8.46t9.61-2.52q5,0,7.5,2.61t1.43,7.37l-7,30.6h-9.54l1.1-4.77a11.41,11.41,0,0,1-3.2,3.84A6.62,6.62,0,0,1,379.61,69.2Zm5.48-7.46a2.1,2.1,0,0,0,1.77-.89,5.83,5.83,0,0,0,1-2.23l2.56-11.19a10.32,10.32,0,0,0-3.63,2.11A6.6,6.6,0,0,0,385,53l-1.21,5.14C383.22,60.56,383.65,61.74,385.09,61.74Z"/><path class="cls-2" d="M408.11,28.62h9.6l-1.2,5.1a11.51,11.51,0,0,1,3-4,6.61,6.61,0,0,1,4.32-1.54q4.06,0,5.41,2.5t.34,7.11l-7.13,31H413l6.92-30a4.21,4.21,0,0,0,0-2.22,1.29,1.29,0,0,0-1.38-.94A2.46,2.46,0,0,0,416.23,37a13.83,13.83,0,0,0-1.31,3.59l-6.48,28.22h-9.6Z"/><path class="cls-2" d="M438.22,69.2q-6.59,0-8.73-3.33c-1.42-2.24-1.59-5.66-.54-10.27l2.85-12.4a31.77,31.77,0,0,1,3.06-8.46,12.55,12.55,0,0,1,4.92-4.91,16.16,16.16,0,0,1,7.75-1.65q5.16,0,7.79,2.69t1.48,7.52l-1.37,6.15h-9.75l1.25-5.65a4.92,4.92,0,0,0,.14-2.44c-.16-.57-.67-.85-1.52-.85q-2.35,0-3.12,3.33L438,58.41a3.83,3.83,0,0,0,0,2.31,1.43,1.43,0,0,0,1.5,1,2.47,2.47,0,0,0,2-.92,5.09,5.09,0,0,0,1.06-2.41L444,51.6h9.75l-1.64,7a13,13,0,0,1-5,7.77A14.76,14.76,0,0,1,438.22,69.2Z"/><path class="cls-2" d="M464.31,69.2q-6.19,0-8.11-3.39t-.33-10.15l3.73-16.12a14,14,0,0,1,5.1-8.44,15.32,15.32,0,0,1,9.54-2.92q11.56,0,9,11.36l-.71,2.91c-.65,2.92-1.23,5.29-1.75,7.13H466.83l-1.75,7.79a9.22,9.22,0,0,0-.34,3.27c.11.78.65,1.17,1.61,1.17a2.22,2.22,0,0,0,1.69-.65,4.38,4.38,0,0,0,.89-1.52,19.09,19.09,0,0,0,.65-2.5l.93-3.9h9.55l-.57,2.32q-1.58,7-5.06,10.33T464.31,69.2Zm8.12-24.39,1.21-5.17q1-4.34-1.17-4.33-2.4,0-3.39,4.33l-1.21,5.17Z"/><path class="cls-2" d="M192.85,144.76l10.87-47.1h18.86l-2.09,9.1h-9.27l-2.12,9.17H218l-2,8.88h-8.89l-2.52,10.79h9.87l-2.08,9.16Z"/><path class="cls-2" d="M239.08,144.76h-9.6l-1.42-11.29-6.48,11.29h-7.23l12.34-21.54-2.36-18.64h9.75l1.21,9.75,5.65-9.75h7.12l-11.5,19.85Z"/><path class="cls-2" d="M251.35,104.62h9.77l-.5,2.14a8.93,8.93,0,0,1,6.36-2.58q4.66,0,5.79,3.13t-.12,8.66l-3.46,14.86a52.61,52.61,0,0,1-2.34,7.73,11.71,11.71,0,0,1-3.52,4.81,9.34,9.34,0,0,1-6,1.83c-2.42,0-4.1-.67-5.06-2L250,152.76h-9.75Zm4.46,33.12a2.09,2.09,0,0,0,2-1.2A15,15,0,0,0,259,133l4-17.07a10.83,10.83,0,0,0,.31-3.16c-.07-.74-.56-1.11-1.48-1.11q-2.25,0-3.23,4.17l-4.06,17.6a8.08,8.08,0,0,0-.27,3.15C254.36,137.37,254.9,137.74,255.81,137.74Z"/><path class="cls-2" d="M277.85,104.62h9.58l-1,4.46a9.08,9.08,0,0,1,3.33-3.65,8.76,8.76,0,0,1,4.73-1.29l-1.88,8a21.63,21.63,0,0,0-4.6.58c-1.73.38-2.64.83-2.73,1.34l-7.15,30.7h-9.58Z"/><path class="cls-2" d="M298.67,145.2c-4.12,0-6.83-1.13-8.1-3.39s-1.39-5.65-.34-10.15L294,115.54a14.05,14.05,0,0,1,5.11-8.44,15.3,15.3,0,0,1,9.54-2.92q11.56,0,9,11.36l-.71,2.91c-.66,2.92-1.24,5.29-1.75,7.13H301.19l-1.75,7.79a9.17,9.17,0,0,0-.33,3.27c.11.78.64,1.17,1.6,1.17a2.22,2.22,0,0,0,1.69-.65,4.41,4.41,0,0,0,.9-1.52,19.38,19.38,0,0,0,.64-2.5l.94-3.9h9.54l-.56,2.32q-1.59,7-5.06,10.33T298.67,145.2Zm8.13-24.39,1.2-5.17q1-4.33-1.16-4.33-2.4,0-3.4,4.33l-1.21,5.17Z"/><path class="cls-2" d="M325.22,145.2q-11.89,0-9.17-12.06l.83-3.19h9.59l-1,4.73a3.34,3.34,0,0,0,.06,2.17c.25.49.8.73,1.64.73,1.28,0,2.16-1,2.63-3.13a5.61,5.61,0,0,0,0-3.6,9.1,9.1,0,0,0-2.25-2.81l-4.17-3.94a9.71,9.71,0,0,1-2.87-4.21,12.19,12.19,0,0,1,.29-6.1,10.73,10.73,0,0,1,2.81-5.23,13.65,13.65,0,0,1,5-3.27,17.46,17.46,0,0,1,6.23-1.11q11.68,0,9,11.63l-.17.77h-9.91l.37-1.54a5.32,5.32,0,0,0,.09-2.42,1.25,1.25,0,0,0-1.34-1,2.47,2.47,0,0,0-1.66.58,2.71,2.71,0,0,0-.86,1.54,3.17,3.17,0,0,0,.92,3.4l4.94,4.33a13.23,13.23,0,0,1,3.68,5.15,12.29,12.29,0,0,1,.11,7,14.78,14.78,0,0,1-5.19,8.62A15.1,15.1,0,0,1,325.22,145.2Z"/><path class="cls-2" d="M351.26,145.2q-11.89,0-9.17-12.06l.84-3.19h9.58l-1,4.73a3.34,3.34,0,0,0,.06,2.17c.25.49.8.73,1.65.73,1.27,0,2.15-1,2.62-3.13a5.54,5.54,0,0,0,0-3.6,8.81,8.81,0,0,0-2.25-2.81l-4.17-3.94a9.71,9.71,0,0,1-2.87-4.21,12.43,12.43,0,0,1,.29-6.1,10.81,10.81,0,0,1,2.81-5.23,13.69,13.69,0,0,1,5.05-3.27,17.41,17.41,0,0,1,6.22-1.11q11.7,0,9,11.63l-.16.77h-9.92l.38-1.54a5.17,5.17,0,0,0,.08-2.42,1.23,1.23,0,0,0-1.33-1,2.48,2.48,0,0,0-1.67.58,2.69,2.69,0,0,0-.85,1.54,3.15,3.15,0,0,0,.91,3.4l4.94,4.33a13.37,13.37,0,0,1,3.69,5.15,12.3,12.3,0,0,1,.1,7,14.68,14.68,0,0,1-5.19,8.62A15.1,15.1,0,0,1,351.26,145.2Z"/><path class="cls-2" d="M378.55,144.76l10.88-47.1h9.41l-9,39.1h9.71l-1.87,8Z"/><path class="cls-2" d="M400.32,144.76l10.87-47.1h9.42l-9,39.1h9.71l-1.88,8Z"/><path class="cls-2" d="M433,145.2c-3.45,0-5.95-1.07-7.52-3.23s-1.92-5.13-1-8.89l5-21.71q1.62-7,5.25-10.58a13.07,13.07,0,0,1,9.6-3.57c3.47,0,6.05,1,7.73,2.86s2.09,4.64,1.25,8.23l-1.85,8.1H442l1.65-7a5.41,5.41,0,0,0,.12-2.79c-.2-.51-.7-.77-1.5-.77a2.35,2.35,0,0,0-2,.87,6.94,6.94,0,0,0-1.06,2.59L433.77,133a5.48,5.48,0,0,0-.06,2.73,1.38,1.38,0,0,0,1.44.84c1.46,0,2.46-1.19,3-3.57l2-8.5h9.5l-2,8.9Q444.85,145.2,433,145.2Z"/><rect class="cls-1" width="500" height="167"/></g></g></svg>